<?xml version="1.0" encoding="UTF-8" standalone="no"?>
<!-- Created with Inkscape (http://www.inkscape.org/) -->

<svg
   width="210mm"
   height="297mm"
   viewBox="0 0 210 297"
   version="1.1"
   id="svg5"
   inkscape:version="1.1.1 (3bf5ae0d25, 2021-09-20)"
   sodipodi:docname="icon.svg"
   xmlns:inkscape="http://www.inkscape.org/namespaces/inkscape"
   xmlns:sodipodi="http://sodipodi.sourceforge.net/DTD/sodipodi-0.dtd"
   xmlns:xlink="http://www.w3.org/1999/xlink"
   xmlns="http://www.w3.org/2000/svg"
   xmlns:svg="http://www.w3.org/2000/svg">
  <sodipodi:namedview
     id="namedview7"
     pagecolor="#505050"
     bordercolor="#eeeeee"
     borderopacity="1"
     inkscape:pageshadow="0"
     inkscape:pageopacity="0"
     inkscape:pagecheckerboard="0"
     inkscape:document-units="mm"
     showgrid="false"
     inkscape:zoom="0.32"
     inkscape:cx="446.875"
     inkscape:cy="804.6875"
     inkscape:window-width="1200"
     inkscape:window-height="1857"
     inkscape:window-x="1912"
     inkscape:window-y="-8"
     inkscape:window-maximized="1"
     inkscape:current-layer="layer1" />
  <defs
     id="defs2">
    <linearGradient
       inkscape:collect="always"
       id="linearGradient30525">
      <stop
         style="stop-color:#16fde9;stop-opacity:1"
         offset="0"
         id="stop30517" />
      <stop
         style="stop-color:#00e7ff;stop-opacity:0.70980394"
         offset="0.3050271"
         id="stop30519" />
      <stop
         style="stop-color:#0d00ff;stop-opacity:0.44313726"
         offset="0.3050271"
         id="stop31169" />
      <stop
         style="stop-color:#9361e6;stop-opacity:0.41960784;"
         offset="0.52880079"
         id="stop31039" />
      <stop
         style="stop-color:#ff00d5;stop-opacity:0.20784314"
         offset="0.52880079"
         id="stop30521" />
      <stop
         style="stop-color:#ff00ce;stop-opacity:0.3019608"
         offset="0.52880079"
         id="stop33603" />
      <stop
         style="stop-color:#ff00a8;stop-opacity:0.9137255"
         offset="1"
         id="stop30523" />
    </linearGradient>
    <linearGradient
       inkscape:collect="always"
       id="linearGradient29339">
      <stop
         style="stop-color:#00e7ff;stop-opacity:0.70980394"
         offset="0"
         id="stop29759" />
      <stop
         style="stop-color:#ff00d5;stop-opacity:0.20784314"
         offset="0.55042922"
         id="stop29335" />
      <stop
         style="stop-color:#ff00a8;stop-opacity:0.91470587"
         offset="1"
         id="stop29337" />
    </linearGradient>
    <linearGradient
       inkscape:collect="always"
       id="linearGradient3439">
      <stop
         style="stop-color:#16fde9;stop-opacity:1"
         offset="0"
         id="stop3435" />
      <stop
         style="stop-color:#ff00d5;stop-opacity:0.20784314"
         offset="0.87671304"
         id="stop18425" />
      <stop
         style="stop-color:#ff00a8;stop-opacity:0"
         offset="1"
         id="stop3437" />
    </linearGradient>
    <rect
       x="126.01023"
       y="361.31504"
       width="542.61547"
       height="343.31358"
       id="rect4924" />
    <rect
       x="174.87134"
       y="356.17177"
       width="501.46928"
       height="383.17396"
       id="rect2432" />
    <linearGradient
       inkscape:collect="always"
       xlink:href="#linearGradient3439"
       id="linearGradient3441"
       x1="-47.356819"
       y1="-1.7539563"
       x2="328.57446"
       y2="325.65121"
       gradientUnits="userSpaceOnUse" />
    <linearGradient
       inkscape:collect="always"
       xlink:href="#linearGradient30525"
       id="linearGradient18066"
       x1="191.39696"
       y1="182.21469"
       x2="25.446028"
       y2="105.87436"
       gradientUnits="userSpaceOnUse"
       gradientTransform="matrix(1.8371766,0,0,1.8371763,-77.705435,-126.459)" />
    <linearGradient
       inkscape:collect="always"
       xlink:href="#linearGradient29339"
       id="linearGradient25411"
       x1="226.78018"
       y1="660.53192"
       x2="220.03273"
       y2="676.09015"
       gradientUnits="userSpaceOnUse"
       gradientTransform="matrix(0.99429312,0,0,0.99429308,-4.4894043,6.0988007)" />
  </defs>
  <g
     inkscape:label="Layer 1"
     inkscape:groupmode="layer"
     id="layer1">
    <g
       id="g36426">
      <rect
         style="fill:url(#linearGradient3441);fill-opacity:1;fill-rule:evenodd;stroke:#778876;stroke-width:5.76699;stroke-opacity:1"
         id="rect1327"
         width="372.4234"
         height="330.3284"
         x="-74.250809"
         y="-19.878172"
         ry="55.834263"
         rx="56.711254" />
      <text
         xml:space="preserve"
         style="font-style:normal;font-weight:normal;font-size:174.403px;line-height:1.25;font-family:sans-serif;mix-blend-mode:normal;fill:url(#linearGradient18066);fill-opacity:1;stroke:url(#linearGradient25411);stroke-width:0;stroke-linecap:square;stroke-miterlimit:4;stroke-dasharray:none;stroke-dashoffset:0;stroke-opacity:1;paint-order:stroke markers fill"
         x="-29.658588"
         y="185.15625"
         id="text12432"
         transform="scale(0.91892355,1.0882298)"><tspan
           sodipodi:role="line"
           id="tspan12430"
           style="font-style:normal;font-variant:normal;font-weight:normal;font-stretch:normal;font-size:174.403px;font-family:Euphorigenic;-inkscape-font-specification:'Euphorigenic, Normal';font-variant-ligatures:normal;font-variant-caps:normal;font-variant-numeric:normal;font-variant-east-asian:normal;fill:url(#linearGradient18066);fill-opacity:1;stroke:url(#linearGradient25411);stroke-width:0;stroke-linecap:square;stroke-miterlimit:4;stroke-dasharray:none;stroke-dashoffset:0;stroke-opacity:1;paint-order:stroke markers fill"
           x="-29.658588"
           y="185.15625">BOSA</tspan></text>
      <g
         sodipodi:type="inkscape:box3d"
         id="g36094"
         style="fill:#b5329a;fill-opacity:0.298039;fill-rule:evenodd;stroke:#0d00ff;stroke-width:0;stroke-linecap:square;stroke-miterlimit:4;stroke-dasharray:none;stroke-dashoffset:0;stroke-opacity:0.443137;paint-order:stroke markers fill"
         inkscape:perspectiveID="#perspective36092"
         inkscape:corner0="-0.10203004 : 0.18389855 : 0 : 1"
         inkscape:corner7="-0.17993611 : 0.14107401 : 0.25 : 1">
        <path
           sodipodi:type="inkscape:box3dside"
           id="path36106"
           style="fill:#e9e9ff;fill-rule:evenodd;stroke:none;stroke-linejoin:round"
           inkscape:box3dsidetype="11"
           d="m 137.19872,31.425036 9.98876,-8.52365 V 62.92193 l -9.98876,5.807688 z"
           points="147.18748,22.901386 147.18748,62.92193 137.19872,68.729618 137.19872,31.425036 " />
        <path
           sodipodi:type="inkscape:box3dside"
           id="path36096"
           style="fill:#353564;fill-rule:evenodd;stroke:none;stroke-linejoin:round"
           inkscape:box3dsidetype="6"
           d="M 116.93042,-1.1693079 V 46.521083 l 20.2683,22.208535 V 31.425036 Z"
           points="116.93042,46.521083 137.19872,68.729618 137.19872,31.425036 116.93042,-1.1693079 " />
        <path
           sodipodi:type="inkscape:box3dside"
           id="path36098"
           style="fill:#4d4d9f;fill-rule:evenodd;stroke:none;stroke-linejoin:round"
           inkscape:box3dsidetype="5"
           d="m 116.93042,-1.1693079 11.10839,-14.2185851 19.14867,38.289279 -9.98876,8.52365 z"
           points="128.03881,-15.387893 147.18748,22.901386 137.19872,31.425036 116.93042,-1.1693079 " />
        <path
           sodipodi:type="inkscape:box3dside"
           id="path36104"
           style="fill:#afafde;fill-rule:evenodd;stroke:none;stroke-linejoin:round"
           inkscape:box3dsidetype="13"
           d="m 116.93042,46.521083 11.10839,-9.687997 19.14867,26.088844 -9.98876,5.807688 z"
           points="128.03881,36.833086 147.18748,62.92193 137.19872,68.729618 116.93042,46.521083 " />
        <path
           sodipodi:type="inkscape:box3dside"
           id="path36102"
           style="fill:#d7d7ff;fill-rule:evenodd;stroke:none;stroke-linejoin:round"
           inkscape:box3dsidetype="14"
           d="M 128.03881,-15.387893 V 36.833086 L 147.18748,62.92193 V 22.901386 Z"
           points="128.03881,36.833086 147.18748,62.92193 147.18748,22.901386 128.03881,-15.387893 " />
        <path
           sodipodi:type="inkscape:box3dside"
           id="path36100"
           style="fill:#8686bf;fill-rule:evenodd;stroke:none;stroke-linejoin:round"
           inkscape:box3dsidetype="3"
           d="m 116.93042,-1.1693079 11.10839,-14.2185851 v 52.220979 l -11.10839,9.687997 z"
           points="128.03881,-15.387893 128.03881,36.833086 116.93042,46.521083 116.93042,-1.1693079 " />
      </g>
      <g
         sodipodi:type="inkscape:box3d"
         id="g36150"
         style="fill:#b5329a;fill-opacity:0.298039;fill-rule:evenodd;stroke:#0d00ff;stroke-width:0;stroke-linecap:square;stroke-miterlimit:4;stroke-dasharray:none;stroke-dashoffset:0;stroke-opacity:0.443137;paint-order:stroke markers fill"
         inkscape:perspectiveID="#perspective36092"
         inkscape:corner0="0.95372505 : -0.13698554 : 0 : 1"
         inkscape:corner7="0.38034922 : -0.17567953 : 0.25 : 1">
        <path
           sodipodi:type="inkscape:box3dside"
           id="path36162"
           style="fill:#e9e9ff;fill-rule:evenodd;stroke:none;stroke-linejoin:round"
           inkscape:box3dsidetype="11"
           d="m 71.469898,233.12287 25.135174,29.76093 v 23.73356 L 71.469898,250.68132 Z"
           points="96.605072,262.8838 96.605072,286.61736 71.469898,250.68132 71.469898,233.12287 " />
        <path
           sodipodi:type="inkscape:box3dside"
           id="path36152"
           style="fill:#353564;fill-rule:evenodd;stroke:none;stroke-linejoin:round"
           inkscape:box3dsidetype="6"
           d="m 53.74349,243.95127 v 19.80524 l 17.726408,-13.07519 v -17.55845 z"
           points="53.74349,263.75651 71.469898,250.68132 71.469898,233.12287 53.74349,243.95127 " />
        <path
           sodipodi:type="inkscape:box3dside"
           id="path36160"
           style="fill:#afafde;fill-rule:evenodd;stroke:none;stroke-linejoin:round"
           inkscape:box3dsidetype="13"
           d="M 53.74349,263.75651 76.067709,311.63229 96.605072,286.61736 71.469898,250.68132 Z"
           points="76.067709,311.63229 96.605072,286.61736 71.469898,250.68132 53.74349,263.75651 " />
        <path
           sodipodi:type="inkscape:box3dside"
           id="path36154"
           style="fill:#4d4d9f;fill-rule:evenodd;stroke:none;stroke-linejoin:round"
           inkscape:box3dsidetype="5"
           d="M 53.74349,243.95127 76.067709,283.60026 96.605072,262.8838 71.469898,233.12287 Z"
           points="76.067709,283.60026 96.605072,262.8838 71.469898,233.12287 53.74349,243.95127 " />
        <path
           sodipodi:type="inkscape:box3dside"
           id="path36158"
           style="fill:#d7d7ff;fill-rule:evenodd;stroke:none;stroke-linejoin:round"
           inkscape:box3dsidetype="14"
           d="m 76.067709,283.60026 v 28.03203 L 96.605072,286.61736 V 262.8838 Z"
           points="76.067709,311.63229 96.605072,286.61736 96.605072,262.8838 76.067709,283.60026 " />
        <path
           sodipodi:type="inkscape:box3dside"
           id="path36156"
           style="fill:#8686bf;fill-rule:evenodd;stroke:none;stroke-linejoin:round"
           inkscape:box3dsidetype="3"
           d="m 53.74349,243.95127 22.324219,39.64899 v 28.03203 L 53.74349,263.75651 Z"
           points="76.067709,283.60026 76.067709,311.63229 53.74349,263.75651 53.74349,243.95127 " />
      </g>
      <g
         sodipodi:type="inkscape:box3d"
         id="g36178"
         style="fill:#b5329a;fill-opacity:0.298039;fill-rule:evenodd;stroke:#0d00ff;stroke-width:0;stroke-linecap:square;stroke-miterlimit:4;stroke-dasharray:none;stroke-dashoffset:0;stroke-opacity:0.443137;paint-order:stroke markers fill"
         inkscape:perspectiveID="#perspective36092"
         inkscape:corner0="-0.48377184 : 0.00067069368 : 0 : 1"
         inkscape:corner7="-0.56058087 : -0.018108413 : 0.25 : 1">
        <path
           sodipodi:type="inkscape:box3dside"
           id="path36186"
           style="fill:#d7d7ff;fill-rule:evenodd;stroke:none;stroke-linejoin:round"
           inkscape:box3dsidetype="14"
           d="m 238.95182,259.6224 v 42.7362 L 228.4532,246.56576 v -27.23902 z"
           points="238.95182,302.3586 228.4532,246.56576 228.4532,219.32674 238.95182,259.6224 " />
        <path
           sodipodi:type="inkscape:box3dside"
           id="path36188"
           style="fill:#afafde;fill-rule:evenodd;stroke:none;stroke-linejoin:round"
           inkscape:box3dsidetype="13"
           d="m 203.39844,279.46615 35.55338,22.89245 -10.49862,-55.79284 -22.90084,-9.8304 z"
           points="238.95182,302.3586 228.4532,246.56576 205.55236,236.73536 203.39844,279.46615 " />
        <path
           sodipodi:type="inkscape:box3dside"
           id="path36190"
           style="fill:#e9e9ff;fill-rule:evenodd;stroke:none;stroke-linejoin:round"
           inkscape:box3dsidetype="11"
           d="m 205.55236,212.22685 22.90084,7.09989 v 27.23902 l -22.90084,-9.8304 z"
           points="228.4532,219.32674 228.4532,246.56576 205.55236,236.73536 205.55236,212.22685 " />
        <path
           sodipodi:type="inkscape:box3dside"
           id="path36182"
           style="fill:#4d4d9f;fill-rule:evenodd;stroke:none;stroke-linejoin:round"
           inkscape:box3dsidetype="5"
           d="m 203.39844,243.08862 35.55338,16.53378 -10.49862,-40.29566 -22.90084,-7.09989 z"
           points="238.95182,259.6224 228.4532,219.32674 205.55236,212.22685 203.39844,243.08862 " />
        <path
           sodipodi:type="inkscape:box3dside"
           id="path36180"
           style="fill:#353564;fill-rule:evenodd;stroke:none;stroke-linejoin:round"
           inkscape:box3dsidetype="6"
           d="m 203.39844,243.08862 v 36.37753 l 2.15392,-42.73079 v -24.50851 z"
           points="203.39844,279.46615 205.55236,236.73536 205.55236,212.22685 203.39844,243.08862 " />
        <path
           sodipodi:type="inkscape:box3dside"
           id="path36184"
           style="fill:#8686bf;fill-rule:evenodd;stroke:none;stroke-linejoin:round"
           inkscape:box3dsidetype="3"
           d="m 203.39844,243.08862 35.55338,16.53378 v 42.7362 l -35.55338,-22.89245 z"
           points="238.95182,259.6224 238.95182,302.3586 203.39844,279.46615 203.39844,243.08862 " />
      </g>
      <g
         sodipodi:type="inkscape:box3d"
         id="g36192"
         style="fill:#b5329a;fill-opacity:0.298039;fill-rule:evenodd;stroke:#0d00ff;stroke-width:0;stroke-linecap:square;stroke-miterlimit:4;stroke-dasharray:none;stroke-dashoffset:0;stroke-opacity:0.443137;paint-order:stroke markers fill"
         inkscape:perspectiveID="#perspective36092"
         inkscape:corner0="0.44309237 : 0.055690458 : 0 : 1"
         inkscape:corner7="0.13385829 : -0.0094394213 : 0.25 : 1">
        <path
           sodipodi:type="inkscape:box3dside"
           id="path36204"
           style="fill:#e9e9ff;fill-rule:evenodd;stroke:none;stroke-linejoin:round"
           inkscape:box3dsidetype="11"
           d="m 93.025051,144.8437 20.787179,-0.81703 v 47.06398 L 93.025051,183.3117 Z"
           points="113.81223,144.02667 113.81223,191.09065 93.025051,183.3117 93.025051,144.8437 " />
        <path
           sodipodi:type="inkscape:box3dside"
           id="path36194"
           style="fill:#353564;fill-rule:evenodd;stroke:none;stroke-linejoin:round"
           inkscape:box3dsidetype="6"
           d="m 72.760417,144.21029 v 45.13216 l 20.264634,-6.03075 v -38.468 z"
           points="72.760417,189.34245 93.025051,183.3117 93.025051,144.8437 72.760417,144.21029 " />
        <path
           sodipodi:type="inkscape:box3dside"
           id="path36202"
           style="fill:#afafde;fill-rule:evenodd;stroke:none;stroke-linejoin:round"
           inkscape:box3dsidetype="13"
           d="m 72.760417,189.34245 19.84375,11.13885 21.208063,-9.39065 -20.787179,-7.77895 z"
           points="92.604167,200.4813 113.81223,191.09065 93.025051,183.3117 72.760417,189.34245 " />
        <path
           sodipodi:type="inkscape:box3dside"
           id="path36196"
           style="fill:#4d4d9f;fill-rule:evenodd;stroke:none;stroke-linejoin:round"
           inkscape:box3dsidetype="5"
           d="m 72.760417,144.21029 19.84375,-1.16993 21.208063,0.98631 -20.787179,0.81703 z"
           points="92.604167,143.04036 113.81223,144.02667 93.025051,144.8437 72.760417,144.21029 " />
        <path
           sodipodi:type="inkscape:box3dside"
           id="path36200"
           style="fill:#d7d7ff;fill-rule:evenodd;stroke:none;stroke-linejoin:round"
           inkscape:box3dsidetype="14"
           d="m 92.604167,143.04036 v 57.44094 l 21.208063,-9.39065 v -47.06398 z"
           points="92.604167,200.4813 113.81223,191.09065 113.81223,144.02667 92.604167,143.04036 " />
        <path
           sodipodi:type="inkscape:box3dside"
           id="path36198"
           style="fill:#8686bf;fill-rule:evenodd;stroke:none;stroke-linejoin:round"
           inkscape:box3dsidetype="3"
           d="m 72.760417,144.21029 19.84375,-1.16993 v 57.44094 l -19.84375,-11.13885 z"
           points="92.604167,143.04036 92.604167,200.4813 72.760417,189.34245 72.760417,144.21029 " />
      </g>
      <g
         sodipodi:type="inkscape:box3d"
         id="g36206"
         style="fill:#b5329a;fill-opacity:0.298039;fill-rule:evenodd;stroke:#0d00ff;stroke-width:0;stroke-linecap:square;stroke-miterlimit:4;stroke-dasharray:none;stroke-dashoffset:0;stroke-opacity:0.443137;paint-order:stroke markers fill"
         inkscape:perspectiveID="#perspective36358"
         inkscape:corner0="-4.4322197 : -0.25018464 : 0 : 1"
         inkscape:corner7="-6.2913388 : -0.67063882 : 0.25 : 1">
        <path
           sodipodi:type="inkscape:box3dside"
           id="path36212"
           style="fill:#8686bf;fill-rule:evenodd;stroke:none;stroke-linejoin:round"
           inkscape:box3dsidetype="3"
           d="m -19.84375,144.69401 10.7486982,30.67828 V 95.911464 L -19.84375,22.191898 Z"
           points="-9.0950518,175.37229 -9.0950518,95.911464 -19.84375,22.191898 -19.84375,144.69401 " />
        <path
           sodipodi:type="inkscape:box3dside"
           id="path36208"
           style="fill:#353564;fill-rule:evenodd;stroke:none;stroke-linejoin:round"
           inkscape:box3dsidetype="6"
           d="M -19.84375,144.69401 V 22.191898 L -38.745058,5.708339 V 137.8344 Z"
           points="-19.84375,22.191898 -38.745058,5.708339 -38.745058,137.8344 -19.84375,144.69401 " />
        <path
           sodipodi:type="inkscape:box3dside"
           id="path36210"
           style="fill:#4d4d9f;fill-rule:evenodd;stroke:none;stroke-linejoin:round"
           inkscape:box3dsidetype="5"
           d="M -19.84375,144.69401 -9.0950518,175.37229 -20.493004,172.56367 -38.745058,137.8344 Z"
           points="-9.0950518,175.37229 -20.493004,172.56367 -38.745058,137.8344 -19.84375,144.69401 " />
        <path
           sodipodi:type="inkscape:box3dside"
           id="path36218"
           style="fill:#e9e9ff;fill-rule:evenodd;stroke:none;stroke-linejoin:round"
           inkscape:box3dsidetype="11"
           d="m -38.745058,137.8344 18.252054,34.72927 V 89.162381 L -38.745058,5.708339 Z"
           points="-20.493004,172.56367 -20.493004,89.162381 -38.745058,5.708339 -38.745058,137.8344 " />
        <path
           sodipodi:type="inkscape:box3dside"
           id="path36214"
           style="fill:#d7d7ff;fill-rule:evenodd;stroke:none;stroke-linejoin:round"
           inkscape:box3dsidetype="14"
           d="M -9.0950518,175.37229 V 95.911464 L -20.493004,89.162381 v 83.401289 z"
           points="-9.0950518,95.911464 -20.493004,89.162381 -20.493004,172.56367 -9.0950518,175.37229 " />
        <path
           sodipodi:type="inkscape:box3dside"
           id="path36216"
           style="fill:#afafde;fill-rule:evenodd;stroke:none;stroke-linejoin:round"
           inkscape:box3dsidetype="13"
           d="M -19.84375,22.191898 -9.0950518,95.911464 -20.493004,89.162381 -38.745058,5.708339 Z"
           points="-9.0950518,95.911464 -20.493004,89.162381 -38.745058,5.708339 -19.84375,22.191898 " />
      </g>
      <g
         sodipodi:type="inkscape:box3d"
         id="g36220"
         style="fill:#b5329a;fill-opacity:0.298039;fill-rule:evenodd;stroke:#0d00ff;stroke-width:0;stroke-linecap:square;stroke-miterlimit:4;stroke-dasharray:none;stroke-dashoffset:0;stroke-opacity:0.443137;paint-order:stroke markers fill"
         inkscape:perspectiveID="#perspective36092"
         inkscape:corner0="-0.5695182 : 0.1084435 : 0 : 1"
         inkscape:corner7="-0.60438589 : 0.079790753 : 0.25 : 1">
        <path
           sodipodi:type="inkscape:box3dside"
           id="path36228"
           style="fill:#d7d7ff;fill-rule:evenodd;stroke:none;stroke-linejoin:round"
           inkscape:box3dsidetype="14"
           d="M 265.41016,-0.49240241 V 71.933594 L 243.95378,101.58227 V 57.201661 Z"
           points="265.41016,71.933594 243.95378,101.58227 243.95378,57.201661 265.41016,-0.49240241 " />
        <path
           sodipodi:type="inkscape:box3dside"
           id="path36232"
           style="fill:#e9e9ff;fill-rule:evenodd;stroke:none;stroke-linejoin:round"
           inkscape:box3dsidetype="11"
           d="m 231.45366,61.879762 12.50012,-4.678101 v 44.380609 l -12.50012,2.40405 z"
           points="243.95378,57.201661 243.95378,101.58227 231.45366,103.98632 231.45366,61.879762 " />
        <path
           sodipodi:type="inkscape:box3dside"
           id="path36224"
           style="fill:#4d4d9f;fill-rule:evenodd;stroke:none;stroke-linejoin:round"
           inkscape:box3dsidetype="5"
           d="M 243.91276,11.57552 265.41016,-0.49240241 243.95378,57.201661 231.45366,61.879762 Z"
           points="265.41016,-0.49240241 243.95378,57.201661 231.45366,61.879762 243.91276,11.57552 " />
        <path
           sodipodi:type="inkscape:box3dside"
           id="path36222"
           style="fill:#353564;fill-rule:evenodd;stroke:none;stroke-linejoin:round"
           inkscape:box3dsidetype="6"
           d="m 243.91276,11.57552 v 66.559716 l -12.4591,25.851084 V 61.879762 Z"
           points="243.91276,78.135236 231.45366,103.98632 231.45366,61.879762 243.91276,11.57552 " />
        <path
           sodipodi:type="inkscape:box3dside"
           id="path36226"
           style="fill:#8686bf;fill-rule:evenodd;stroke:none;stroke-linejoin:round"
           inkscape:box3dsidetype="3"
           d="m 243.91276,11.57552 21.4974,-12.06792241 V 71.933594 l -21.4974,6.201642 z"
           points="265.41016,-0.49240241 265.41016,71.933594 243.91276,78.135236 243.91276,11.57552 " />
        <path
           sodipodi:type="inkscape:box3dside"
           id="path36230"
           style="fill:#afafde;fill-rule:evenodd;stroke:none;stroke-linejoin:round"
           inkscape:box3dsidetype="13"
           d="m 243.91276,78.135236 21.4974,-6.201642 -21.45638,29.648676 -12.50012,2.40405 z"
           points="265.41016,71.933594 243.95378,101.58227 231.45366,103.98632 243.91276,78.135236 " />
      </g>
      <g
         sodipodi:type="inkscape:box3d"
         id="g36234"
         style="fill:#b5329a;fill-opacity:0.298039;fill-rule:evenodd;stroke:#0d00ff;stroke-width:0;stroke-linecap:square;stroke-miterlimit:4;stroke-dasharray:none;stroke-dashoffset:0;stroke-opacity:0.443137;paint-order:stroke markers fill"
         inkscape:perspectiveID="#perspective36092"
         inkscape:corner0="-3.2677166 : 0.2714941 : 0 : 1"
         inkscape:corner7="-3.7019602 : 0.11070572 : 0.25 : 1">
        <path
           sodipodi:type="inkscape:box3dside"
           id="path36240"
           style="fill:#8686bf;fill-rule:evenodd;stroke:none;stroke-linejoin:round"
           inkscape:box3dsidetype="3"
           d="m -46.302083,246.39323 7.441406,-15.73284 v -59.50805 l -7.441406,4.33769 z"
           points="-38.860677,230.66039 -38.860677,171.15234 -46.302083,175.49003 -46.302083,246.39323 " />
        <path
           sodipodi:type="inkscape:box3dside"
           id="path36244"
           style="fill:#afafde;fill-rule:evenodd;stroke:none;stroke-linejoin:round"
           inkscape:box3dsidetype="13"
           d="m -46.302083,175.49003 7.441406,-4.33769 -25.373646,2.30962 -13.824213,5.37219 z"
           points="-38.860677,171.15234 -64.234323,173.46196 -78.058536,178.83415 -46.302083,175.49003 " />
        <path
           sodipodi:type="inkscape:box3dside"
           id="path36236"
           style="fill:#353564;fill-rule:evenodd;stroke:none;stroke-linejoin:round"
           inkscape:box3dsidetype="6"
           d="m -46.302083,246.39323 v -70.9032 l -31.756453,3.34412 v 79.68829 z"
           points="-46.302083,175.49003 -78.058536,178.83415 -78.058536,258.52244 -46.302083,246.39323 " />
        <path
           sodipodi:type="inkscape:box3dside"
           id="path36238"
           style="fill:#4d4d9f;fill-rule:evenodd;stroke:none;stroke-linejoin:round"
           inkscape:box3dsidetype="5"
           d="m -46.302083,246.39323 7.441406,-15.73284 -25.373646,8.37701 -13.824213,19.48504 z"
           points="-38.860677,230.66039 -64.234323,239.0374 -78.058536,258.52244 -46.302083,246.39323 " />
        <path
           sodipodi:type="inkscape:box3dside"
           id="path36242"
           style="fill:#d7d7ff;fill-rule:evenodd;stroke:none;stroke-linejoin:round"
           inkscape:box3dsidetype="14"
           d="m -38.860677,230.66039 v -59.50805 l -25.373646,2.30962 v 65.57544 z"
           points="-38.860677,171.15234 -64.234323,173.46196 -64.234323,239.0374 -38.860677,230.66039 " />
        <path
           sodipodi:type="inkscape:box3dside"
           id="path36246"
           style="fill:#e9e9ff;fill-rule:evenodd;stroke:none;stroke-linejoin:round"
           inkscape:box3dsidetype="11"
           d="m -78.058536,258.52244 13.824213,-19.48504 v -65.57544 l -13.824213,5.37219 z"
           points="-64.234323,239.0374 -64.234323,173.46196 -78.058536,178.83415 -78.058536,258.52244 " />
      </g>
      <g
         sodipodi:type="inkscape:box3d"
         id="g36248"
         style="fill:#b5329a;fill-opacity:0.298039;fill-rule:evenodd;stroke:#0d00ff;stroke-width:0;stroke-linecap:square;stroke-miterlimit:4;stroke-dasharray:none;stroke-dashoffset:0;stroke-opacity:0.443137;paint-order:stroke markers fill"
         inkscape:perspectiveID="#perspective36092"
         inkscape:corner0="6.937008 : -0.2560748 : 0 : 1"
         inkscape:corner7="3.3790389 : -0.53060433 : 0.25 : 1">
        <path
           sodipodi:type="inkscape:box3dside"
           id="path36260"
           style="fill:#e9e9ff;fill-rule:evenodd;stroke:none;stroke-linejoin:round"
           inkscape:box3dsidetype="11"
           d="m 19.237798,185.82436 14.786544,28.68822 v 59.30595 L 19.237798,219.3567 Z"
           points="34.024342,214.51258 34.024342,273.81853 19.237798,219.3567 19.237798,185.82436 " />
        <path
           sodipodi:type="inkscape:box3dside"
           id="path36250"
           style="fill:#353564;fill-rule:evenodd;stroke:none;stroke-linejoin:round"
           inkscape:box3dsidetype="6"
           d="m 13.229167,187 v 34.58854 l 6.008631,-2.23184 v -33.53234 z"
           points="13.229167,221.58854 19.237798,219.3567 19.237798,185.82436 13.229167,187 " />
        <path
           sodipodi:type="inkscape:box3dside"
           id="path36258"
           style="fill:#afafde;fill-rule:evenodd;stroke:none;stroke-linejoin:round"
           inkscape:box3dsidetype="13"
           d="M 13.229167,221.58854 23.977865,280.97298 34.024342,273.81853 19.237798,219.3567 Z"
           points="23.977865,280.97298 34.024342,273.81853 19.237798,219.3567 13.229167,221.58854 " />
        <path
           sodipodi:type="inkscape:box3dside"
           id="path36252"
           style="fill:#4d4d9f;fill-rule:evenodd;stroke:none;stroke-linejoin:round"
           inkscape:box3dsidetype="5"
           d="m 13.229167,187 10.748698,31.28125 10.046477,-3.76867 -14.786544,-28.68822 z"
           points="23.977865,218.28125 34.024342,214.51258 19.237798,185.82436 13.229167,187 " />
        <path
           sodipodi:type="inkscape:box3dside"
           id="path36256"
           style="fill:#d7d7ff;fill-rule:evenodd;stroke:none;stroke-linejoin:round"
           inkscape:box3dsidetype="14"
           d="m 23.977865,218.28125 v 62.69173 l 10.046477,-7.15445 v -59.30595 z"
           points="23.977865,280.97298 34.024342,273.81853 34.024342,214.51258 23.977865,218.28125 " />
        <path
           sodipodi:type="inkscape:box3dside"
           id="path36254"
           style="fill:#8686bf;fill-rule:evenodd;stroke:none;stroke-linejoin:round"
           inkscape:box3dsidetype="3"
           d="m 13.229167,187 10.748698,31.28125 v 62.69173 L 13.229167,221.58854 Z"
           points="23.977865,218.28125 23.977865,280.97298 13.229167,221.58854 13.229167,187 " />
      </g>
      <g
         sodipodi:type="inkscape:box3d"
         id="g36262"
         style="fill:#b5329a;fill-opacity:0.298039;fill-rule:evenodd;stroke:#0d00ff;stroke-width:0;stroke-linecap:square;stroke-miterlimit:4;stroke-dasharray:none;stroke-dashoffset:0;stroke-opacity:0.443137;paint-order:stroke markers fill"
         inkscape:perspectiveID="#perspective36356"
         inkscape:corner0="0.45967964 : 0.21972434 : 0 : 1"
         inkscape:corner7="0.22107815 : 0.21315899 : 0.25 : 1">
        <path
           sodipodi:type="inkscape:box3dside"
           id="path36274"
           style="fill:#e9e9ff;fill-rule:evenodd;stroke:none;stroke-linejoin:round"
           inkscape:box3dsidetype="11"
           d="M 50.781379,86.141986 65.72319,69.993036 v 4.462951 L 50.781379,89.982092 Z"
           points="65.72319,69.993036 65.72319,74.455987 50.781379,89.982092 50.781379,86.141986 " />
        <path
           sodipodi:type="inkscape:box3dside"
           id="path36264"
           style="fill:#353564;fill-rule:evenodd;stroke:none;stroke-linejoin:round"
           inkscape:box3dsidetype="6"
           d="m 30.592448,69.089435 v 4.497802 l 20.188931,16.394855 v -3.840106 z"
           points="30.592448,73.587237 50.781379,89.982092 50.781379,86.141986 30.592448,69.089435 " />
        <path
           sodipodi:type="inkscape:box3dside"
           id="path36266"
           style="fill:#4d4d9f;fill-rule:evenodd;stroke:none;stroke-linejoin:round"
           inkscape:box3dsidetype="5"
           d="M 30.592448,69.089435 44.648438,46.302087 65.72319,69.993036 50.781379,86.141986 Z"
           points="44.648438,46.302087 65.72319,69.993036 50.781379,86.141986 30.592448,69.089435 " />
        <path
           sodipodi:type="inkscape:box3dside"
           id="path36272"
           style="fill:#afafde;fill-rule:evenodd;stroke:none;stroke-linejoin:round"
           inkscape:box3dsidetype="13"
           d="M 30.592448,73.587237 44.648438,51.67877 65.72319,74.455987 50.781379,89.982092 Z"
           points="44.648438,51.67877 65.72319,74.455987 50.781379,89.982092 30.592448,73.587237 " />
        <path
           sodipodi:type="inkscape:box3dside"
           id="path36270"
           style="fill:#d7d7ff;fill-rule:evenodd;stroke:none;stroke-linejoin:round"
           inkscape:box3dsidetype="14"
           d="M 44.648438,46.302087 V 51.67877 L 65.72319,74.455987 v -4.462951 z"
           points="44.648438,51.67877 65.72319,74.455987 65.72319,69.993036 44.648438,46.302087 " />
        <path
           sodipodi:type="inkscape:box3dside"
           id="path36268"
           style="fill:#8686bf;fill-rule:evenodd;stroke:none;stroke-linejoin:round"
           inkscape:box3dsidetype="3"
           d="M 30.592448,69.089435 44.648438,46.302087 V 51.67877 L 30.592448,73.587237 Z"
           points="44.648438,46.302087 44.648438,51.67877 30.592448,73.587237 30.592448,69.089435 " />
      </g>
    </g>
  </g>
</svg>
