<svg xmlns="http://www.w3.org/2000/svg" xmlns:svg="http://www.w3.org/2000/svg" xmlns:xlink="http://www.w3.org/1999/xlink" id="svg5" width="210mm" height="297mm" version="1.1" viewBox="0 0 210 297"><defs id="defs2"><linearGradient id="linearGradient30525"><stop style="stop-color:#16fde9;stop-opacity:1" id="stop30517" offset="0"/><stop style="stop-color:#00e7ff;stop-opacity:.70980394" id="stop30519" offset=".305"/><stop style="stop-color:#0d00ff;stop-opacity:.44313726" id="stop31169" offset=".305"/><stop style="stop-color:#9361e6;stop-opacity:.41960784" id="stop31039" offset=".529"/><stop style="stop-color:#ff00d5;stop-opacity:.20784314" id="stop30521" offset=".529"/><stop style="stop-color:#ff00ce;stop-opacity:.3019608" id="stop33603" offset=".529"/><stop style="stop-color:#ff00a8;stop-opacity:.9137255" id="stop30523" offset="1"/></linearGradient><linearGradient id="linearGradient29339"><stop style="stop-color:#00e7ff;stop-opacity:.70980394" id="stop29759" offset="0"/><stop style="stop-color:#ff00d5;stop-opacity:.20784314" id="stop29335" offset=".55"/><stop style="stop-color:#ff00a8;stop-opacity:.91470587" id="stop29337" offset="1"/></linearGradient><linearGradient id="linearGradient3439"><stop style="stop-color:#16fde9;stop-opacity:1" id="stop3435" offset="0"/><stop style="stop-color:#ff00d5;stop-opacity:.20784314" id="stop18425" offset=".877"/><stop style="stop-color:#ff00a8;stop-opacity:0" id="stop3437" offset="1"/></linearGradient><rect id="rect4924" width="542.615" height="343.314" x="126.01" y="361.315"/><rect id="rect2432" width="501.469" height="383.174" x="174.871" y="356.172"/><linearGradient id="linearGradient3441" x1="-47.357" x2="328.574" y1="-1.754" y2="325.651" gradientUnits="userSpaceOnUse" xlink:href="#linearGradient3439"/><linearGradient id="linearGradient18066" x1="191.397" x2="25.446" y1="182.215" y2="105.874" gradientTransform="matrix(1.8371766,0,0,1.8371763,-77.705435,-126.459)" gradientUnits="userSpaceOnUse" xlink:href="#linearGradient30525"/><linearGradient id="linearGradient25411" x1="226.78" x2="220.033" y1="660.532" y2="676.09" gradientTransform="matrix(0.99429312,0,0,0.99429308,-4.4894043,6.0988007)" gradientUnits="userSpaceOnUse" xlink:href="#linearGradient29339"/></defs><g id="layer1"><g id="g36426"><rect style="fill:url(#linearGradient3441);fill-opacity:1;fill-rule:evenodd;stroke:#778876;stroke-width:5.76699;stroke-opacity:1" id="rect1327" width="372.423" height="330.328" x="-74.251" y="-19.878" rx="56.711" ry="55.834"/><text style="font-style:normal;font-weight:400;font-size:174.403px;line-height:1.25;font-family:sans-serif;mix-blend-mode:normal;fill:url(#linearGradient18066);fill-opacity:1;stroke:url(#linearGradient25411);stroke-width:0;stroke-linecap:square;stroke-miterlimit:4;stroke-dasharray:none;stroke-dashoffset:0;stroke-opacity:1;paint-order:stroke markers fill" id="text12432" x="-29.659" y="185.156" transform="scale(0.91892355,1.0882298)" xml:space="preserve"><tspan id="tspan12430" x="-29.659" y="185.156" style="font-style:normal;font-variant:normal;font-weight:400;font-stretch:normal;font-size:174.403px;font-family:Euphorigenic;-inkscape-font-specification:'Euphorigenic, Normal';font-variant-ligatures:normal;font-variant-caps:normal;font-variant-numeric:normal;font-variant-east-asian:normal;fill:url(#linearGradient18066);fill-opacity:1;stroke:url(#linearGradient25411);stroke-width:0;stroke-linecap:square;stroke-miterlimit:4;stroke-dasharray:none;stroke-dashoffset:0;stroke-opacity:1;paint-order:stroke markers fill">BOSA</tspan></text><g id="g36094" style="fill:#b5329a;fill-opacity:.298039;fill-rule:evenodd;stroke:#0d00ff;stroke-width:0;stroke-linecap:square;stroke-miterlimit:4;stroke-dasharray:none;stroke-dashoffset:0;stroke-opacity:.443137;paint-order:stroke markers fill"><path id="path36106" d="m 137.19872,31.425036 9.98876,-8.52365 V 62.92193 l -9.98876,5.807688 z" points="147.187 22.901 147.187 62.922 137.199 68.73 137.199 31.425" style="fill:#e9e9ff;fill-rule:evenodd;stroke:none;stroke-linejoin:round"/><path id="path36096" d="M 116.93042,-1.1693079 V 46.521083 l 20.2683,22.208535 V 31.425036 Z" points="116.93 46.521 137.199 68.73 137.199 31.425 116.93 -1.169" style="fill:#353564;fill-rule:evenodd;stroke:none;stroke-linejoin:round"/><path id="path36098" d="m 116.93042,-1.1693079 11.10839,-14.2185851 19.14867,38.289279 -9.98876,8.52365 z" points="128.039 -15.388 147.187 22.901 137.199 31.425 116.93 -1.169" style="fill:#4d4d9f;fill-rule:evenodd;stroke:none;stroke-linejoin:round"/><path id="path36104" d="m 116.93042,46.521083 11.10839,-9.687997 19.14867,26.088844 -9.98876,5.807688 z" points="128.039 36.833 147.187 62.922 137.199 68.73 116.93 46.521" style="fill:#afafde;fill-rule:evenodd;stroke:none;stroke-linejoin:round"/><path id="path36102" d="M 128.03881,-15.387893 V 36.833086 L 147.18748,62.92193 V 22.901386 Z" points="128.039 36.833 147.187 62.922 147.187 22.901 128.039 -15.388" style="fill:#d7d7ff;fill-rule:evenodd;stroke:none;stroke-linejoin:round"/><path id="path36100" d="m 116.93042,-1.1693079 11.10839,-14.2185851 v 52.220979 l -11.10839,9.687997 z" points="128.039 -15.388 128.039 36.833 116.93 46.521 116.93 -1.169" style="fill:#8686bf;fill-rule:evenodd;stroke:none;stroke-linejoin:round"/></g><g id="g36150" style="fill:#b5329a;fill-opacity:.298039;fill-rule:evenodd;stroke:#0d00ff;stroke-width:0;stroke-linecap:square;stroke-miterlimit:4;stroke-dasharray:none;stroke-dashoffset:0;stroke-opacity:.443137;paint-order:stroke markers fill"><path id="path36162" d="m 71.469898,233.12287 25.135174,29.76093 v 23.73356 L 71.469898,250.68132 Z" points="96.605 262.884 96.605 286.617 71.47 250.681 71.47 233.123" style="fill:#e9e9ff;fill-rule:evenodd;stroke:none;stroke-linejoin:round"/><path id="path36152" d="m 53.74349,243.95127 v 19.80524 l 17.726408,-13.07519 v -17.55845 z" points="53.743 263.757 71.47 250.681 71.47 233.123 53.743 243.951" style="fill:#353564;fill-rule:evenodd;stroke:none;stroke-linejoin:round"/><path id="path36160" d="M 53.74349,263.75651 76.067709,311.63229 96.605072,286.61736 71.469898,250.68132 Z" points="76.068 311.632 96.605 286.617 71.47 250.681 53.743 263.757" style="fill:#afafde;fill-rule:evenodd;stroke:none;stroke-linejoin:round"/><path id="path36154" d="M 53.74349,243.95127 76.067709,283.60026 96.605072,262.8838 71.469898,233.12287 Z" points="76.068 283.6 96.605 262.884 71.47 233.123 53.743 243.951" style="fill:#4d4d9f;fill-rule:evenodd;stroke:none;stroke-linejoin:round"/><path id="path36158" d="m 76.067709,283.60026 v 28.03203 L 96.605072,286.61736 V 262.8838 Z" points="76.068 311.632 96.605 286.617 96.605 262.884 76.068 283.6" style="fill:#d7d7ff;fill-rule:evenodd;stroke:none;stroke-linejoin:round"/><path id="path36156" d="m 53.74349,243.95127 22.324219,39.64899 v 28.03203 L 53.74349,263.75651 Z" points="76.068 283.6 76.068 311.632 53.743 263.757 53.743 243.951" style="fill:#8686bf;fill-rule:evenodd;stroke:none;stroke-linejoin:round"/></g><g id="g36178" style="fill:#b5329a;fill-opacity:.298039;fill-rule:evenodd;stroke:#0d00ff;stroke-width:0;stroke-linecap:square;stroke-miterlimit:4;stroke-dasharray:none;stroke-dashoffset:0;stroke-opacity:.443137;paint-order:stroke markers fill"><path id="path36186" d="m 238.95182,259.6224 v 42.7362 L 228.4532,246.56576 v -27.23902 z" points="238.952 302.359 228.453 246.566 228.453 219.327 238.952 259.622" style="fill:#d7d7ff;fill-rule:evenodd;stroke:none;stroke-linejoin:round"/><path id="path36188" d="m 203.39844,279.46615 35.55338,22.89245 -10.49862,-55.79284 -22.90084,-9.8304 z" points="238.952 302.359 228.453 246.566 205.552 236.735 203.398 279.466" style="fill:#afafde;fill-rule:evenodd;stroke:none;stroke-linejoin:round"/><path id="path36190" d="m 205.55236,212.22685 22.90084,7.09989 v 27.23902 l -22.90084,-9.8304 z" points="228.453 219.327 228.453 246.566 205.552 236.735 205.552 212.227" style="fill:#e9e9ff;fill-rule:evenodd;stroke:none;stroke-linejoin:round"/><path id="path36182" d="m 203.39844,243.08862 35.55338,16.53378 -10.49862,-40.29566 -22.90084,-7.09989 z" points="238.952 259.622 228.453 219.327 205.552 212.227 203.398 243.089" style="fill:#4d4d9f;fill-rule:evenodd;stroke:none;stroke-linejoin:round"/><path id="path36180" d="m 203.39844,243.08862 v 36.37753 l 2.15392,-42.73079 v -24.50851 z" points="203.398 279.466 205.552 236.735 205.552 212.227 203.398 243.089" style="fill:#353564;fill-rule:evenodd;stroke:none;stroke-linejoin:round"/><path id="path36184" d="m 203.39844,243.08862 35.55338,16.53378 v 42.7362 l -35.55338,-22.89245 z" points="238.952 259.622 238.952 302.359 203.398 279.466 203.398 243.089" style="fill:#8686bf;fill-rule:evenodd;stroke:none;stroke-linejoin:round"/></g><g id="g36192" style="fill:#b5329a;fill-opacity:.298039;fill-rule:evenodd;stroke:#0d00ff;stroke-width:0;stroke-linecap:square;stroke-miterlimit:4;stroke-dasharray:none;stroke-dashoffset:0;stroke-opacity:.443137;paint-order:stroke markers fill"><path id="path36204" d="m 93.025051,144.8437 20.787179,-0.81703 v 47.06398 L 93.025051,183.3117 Z" points="113.812 144.027 113.812 191.091 93.025 183.312 93.025 144.844" style="fill:#e9e9ff;fill-rule:evenodd;stroke:none;stroke-linejoin:round"/><path id="path36194" d="m 72.760417,144.21029 v 45.13216 l 20.264634,-6.03075 v -38.468 z" points="72.76 189.342 93.025 183.312 93.025 144.844 72.76 144.21" style="fill:#353564;fill-rule:evenodd;stroke:none;stroke-linejoin:round"/><path id="path36202" d="m 72.760417,189.34245 19.84375,11.13885 21.208063,-9.39065 -20.787179,-7.77895 z" points="92.604 200.481 113.812 191.091 93.025 183.312 72.76 189.342" style="fill:#afafde;fill-rule:evenodd;stroke:none;stroke-linejoin:round"/><path id="path36196" d="m 72.760417,144.21029 19.84375,-1.16993 21.208063,0.98631 -20.787179,0.81703 z" points="92.604 143.04 113.812 144.027 93.025 144.844 72.76 144.21" style="fill:#4d4d9f;fill-rule:evenodd;stroke:none;stroke-linejoin:round"/><path id="path36200" d="m 92.604167,143.04036 v 57.44094 l 21.208063,-9.39065 v -47.06398 z" points="92.604 200.481 113.812 191.091 113.812 144.027 92.604 143.04" style="fill:#d7d7ff;fill-rule:evenodd;stroke:none;stroke-linejoin:round"/><path id="path36198" d="m 72.760417,144.21029 19.84375,-1.16993 v 57.44094 l -19.84375,-11.13885 z" points="92.604 143.04 92.604 200.481 72.76 189.342 72.76 144.21" style="fill:#8686bf;fill-rule:evenodd;stroke:none;stroke-linejoin:round"/></g><g id="g36206" style="fill:#b5329a;fill-opacity:.298039;fill-rule:evenodd;stroke:#0d00ff;stroke-width:0;stroke-linecap:square;stroke-miterlimit:4;stroke-dasharray:none;stroke-dashoffset:0;stroke-opacity:.443137;paint-order:stroke markers fill"><path id="path36212" d="m -19.84375,144.69401 10.7486982,30.67828 V 95.911464 L -19.84375,22.191898 Z" points="-9.095 175.372 -9.095 95.911 -19.844 22.192 -19.844 144.694" style="fill:#8686bf;fill-rule:evenodd;stroke:none;stroke-linejoin:round"/><path id="path36208" d="M -19.84375,144.69401 V 22.191898 L -38.745058,5.708339 V 137.8344 Z" points="-19.844 22.192 -38.745 5.708 -38.745 137.834 -19.844 144.694" style="fill:#353564;fill-rule:evenodd;stroke:none;stroke-linejoin:round"/><path id="path36210" d="M -19.84375,144.69401 -9.0950518,175.37229 -20.493004,172.56367 -38.745058,137.8344 Z" points="-9.095 175.372 -20.493 172.564 -38.745 137.834 -19.844 144.694" style="fill:#4d4d9f;fill-rule:evenodd;stroke:none;stroke-linejoin:round"/><path id="path36218" d="m -38.745058,137.8344 18.252054,34.72927 V 89.162381 L -38.745058,5.708339 Z" points="-20.493 172.564 -20.493 89.162 -38.745 5.708 -38.745 137.834" style="fill:#e9e9ff;fill-rule:evenodd;stroke:none;stroke-linejoin:round"/><path id="path36214" d="M -9.0950518,175.37229 V 95.911464 L -20.493004,89.162381 v 83.401289 z" points="-9.095 95.911 -20.493 89.162 -20.493 172.564 -9.095 175.372" style="fill:#d7d7ff;fill-rule:evenodd;stroke:none;stroke-linejoin:round"/><path id="path36216" d="M -19.84375,22.191898 -9.0950518,95.911464 -20.493004,89.162381 -38.745058,5.708339 Z" points="-9.095 95.911 -20.493 89.162 -38.745 5.708 -19.844 22.192" style="fill:#afafde;fill-rule:evenodd;stroke:none;stroke-linejoin:round"/></g><g id="g36220" style="fill:#b5329a;fill-opacity:.298039;fill-rule:evenodd;stroke:#0d00ff;stroke-width:0;stroke-linecap:square;stroke-miterlimit:4;stroke-dasharray:none;stroke-dashoffset:0;stroke-opacity:.443137;paint-order:stroke markers fill"><path id="path36228" d="M 265.41016,-0.49240241 V 71.933594 L 243.95378,101.58227 V 57.201661 Z" points="265.41 71.934 243.954 101.582 243.954 57.202 265.41 -.492" style="fill:#d7d7ff;fill-rule:evenodd;stroke:none;stroke-linejoin:round"/><path id="path36232" d="m 231.45366,61.879762 12.50012,-4.678101 v 44.380609 l -12.50012,2.40405 z" points="243.954 57.202 243.954 101.582 231.454 103.986 231.454 61.88" style="fill:#e9e9ff;fill-rule:evenodd;stroke:none;stroke-linejoin:round"/><path id="path36224" d="M 243.91276,11.57552 265.41016,-0.49240241 243.95378,57.201661 231.45366,61.879762 Z" points="265.41 -.492 243.954 57.202 231.454 61.88 243.913 11.576" style="fill:#4d4d9f;fill-rule:evenodd;stroke:none;stroke-linejoin:round"/><path id="path36222" d="m 243.91276,11.57552 v 66.559716 l -12.4591,25.851084 V 61.879762 Z" points="243.913 78.135 231.454 103.986 231.454 61.88 243.913 11.576" style="fill:#353564;fill-rule:evenodd;stroke:none;stroke-linejoin:round"/><path id="path36226" d="m 243.91276,11.57552 21.4974,-12.06792241 V 71.933594 l -21.4974,6.201642 z" points="265.41 -.492 265.41 71.934 243.913 78.135 243.913 11.576" style="fill:#8686bf;fill-rule:evenodd;stroke:none;stroke-linejoin:round"/><path id="path36230" d="m 243.91276,78.135236 21.4974,-6.201642 -21.45638,29.648676 -12.50012,2.40405 z" points="265.41 71.934 243.954 101.582 231.454 103.986 243.913 78.135" style="fill:#afafde;fill-rule:evenodd;stroke:none;stroke-linejoin:round"/></g><g id="g36234" style="fill:#b5329a;fill-opacity:.298039;fill-rule:evenodd;stroke:#0d00ff;stroke-width:0;stroke-linecap:square;stroke-miterlimit:4;stroke-dasharray:none;stroke-dashoffset:0;stroke-opacity:.443137;paint-order:stroke markers fill"><path id="path36240" d="m -46.302083,246.39323 7.441406,-15.73284 v -59.50805 l -7.441406,4.33769 z" points="-38.861 230.66 -38.861 171.152 -46.302 175.49 -46.302 246.393" style="fill:#8686bf;fill-rule:evenodd;stroke:none;stroke-linejoin:round"/><path id="path36244" d="m -46.302083,175.49003 7.441406,-4.33769 -25.373646,2.30962 -13.824213,5.37219 z" points="-38.861 171.152 -64.234 173.462 -78.059 178.834 -46.302 175.49" style="fill:#afafde;fill-rule:evenodd;stroke:none;stroke-linejoin:round"/><path id="path36236" d="m -46.302083,246.39323 v -70.9032 l -31.756453,3.34412 v 79.68829 z" points="-46.302 175.49 -78.059 178.834 -78.059 258.522 -46.302 246.393" style="fill:#353564;fill-rule:evenodd;stroke:none;stroke-linejoin:round"/><path id="path36238" d="m -46.302083,246.39323 7.441406,-15.73284 -25.373646,8.37701 -13.824213,19.48504 z" points="-38.861 230.66 -64.234 239.037 -78.059 258.522 -46.302 246.393" style="fill:#4d4d9f;fill-rule:evenodd;stroke:none;stroke-linejoin:round"/><path id="path36242" d="m -38.860677,230.66039 v -59.50805 l -25.373646,2.30962 v 65.57544 z" points="-38.861 171.152 -64.234 173.462 -64.234 239.037 -38.861 230.66" style="fill:#d7d7ff;fill-rule:evenodd;stroke:none;stroke-linejoin:round"/><path id="path36246" d="m -78.058536,258.52244 13.824213,-19.48504 v -65.57544 l -13.824213,5.37219 z" points="-64.234 239.037 -64.234 173.462 -78.059 178.834 -78.059 258.522" style="fill:#e9e9ff;fill-rule:evenodd;stroke:none;stroke-linejoin:round"/></g><g id="g36248" style="fill:#b5329a;fill-opacity:.298039;fill-rule:evenodd;stroke:#0d00ff;stroke-width:0;stroke-linecap:square;stroke-miterlimit:4;stroke-dasharray:none;stroke-dashoffset:0;stroke-opacity:.443137;paint-order:stroke markers fill"><path id="path36260" d="m 19.237798,185.82436 14.786544,28.68822 v 59.30595 L 19.237798,219.3567 Z" points="34.024 214.513 34.024 273.819 19.238 219.357 19.238 185.824" style="fill:#e9e9ff;fill-rule:evenodd;stroke:none;stroke-linejoin:round"/><path id="path36250" d="m 13.229167,187 v 34.58854 l 6.008631,-2.23184 v -33.53234 z" points="13.229 221.589 19.238 219.357 19.238 185.824 13.229 187" style="fill:#353564;fill-rule:evenodd;stroke:none;stroke-linejoin:round"/><path id="path36258" d="M 13.229167,221.58854 23.977865,280.97298 34.024342,273.81853 19.237798,219.3567 Z" points="23.978 280.973 34.024 273.819 19.238 219.357 13.229 221.589" style="fill:#afafde;fill-rule:evenodd;stroke:none;stroke-linejoin:round"/><path id="path36252" d="m 13.229167,187 10.748698,31.28125 10.046477,-3.76867 -14.786544,-28.68822 z" points="23.978 218.281 34.024 214.513 19.238 185.824 13.229 187" style="fill:#4d4d9f;fill-rule:evenodd;stroke:none;stroke-linejoin:round"/><path id="path36256" d="m 23.977865,218.28125 v 62.69173 l 10.046477,-7.15445 v -59.30595 z" points="23.978 280.973 34.024 273.819 34.024 214.513 23.978 218.281" style="fill:#d7d7ff;fill-rule:evenodd;stroke:none;stroke-linejoin:round"/><path id="path36254" d="m 13.229167,187 10.748698,31.28125 v 62.69173 L 13.229167,221.58854 Z" points="23.978 218.281 23.978 280.973 13.229 221.589 13.229 187" style="fill:#8686bf;fill-rule:evenodd;stroke:none;stroke-linejoin:round"/></g><g id="g36262" style="fill:#b5329a;fill-opacity:.298039;fill-rule:evenodd;stroke:#0d00ff;stroke-width:0;stroke-linecap:square;stroke-miterlimit:4;stroke-dasharray:none;stroke-dashoffset:0;stroke-opacity:.443137;paint-order:stroke markers fill"><path id="path36274" d="M 50.781379,86.141986 65.72319,69.993036 v 4.462951 L 50.781379,89.982092 Z" points="65.723 69.993 65.723 74.456 50.781 89.982 50.781 86.142" style="fill:#e9e9ff;fill-rule:evenodd;stroke:none;stroke-linejoin:round"/><path id="path36264" d="m 30.592448,69.089435 v 4.497802 l 20.188931,16.394855 v -3.840106 z" points="30.592 73.587 50.781 89.982 50.781 86.142 30.592 69.089" style="fill:#353564;fill-rule:evenodd;stroke:none;stroke-linejoin:round"/><path id="path36266" d="M 30.592448,69.089435 44.648438,46.302087 65.72319,69.993036 50.781379,86.141986 Z" points="44.648 46.302 65.723 69.993 50.781 86.142 30.592 69.089" style="fill:#4d4d9f;fill-rule:evenodd;stroke:none;stroke-linejoin:round"/><path id="path36272" d="M 30.592448,73.587237 44.648438,51.67877 65.72319,74.455987 50.781379,89.982092 Z" points="44.648 51.679 65.723 74.456 50.781 89.982 30.592 73.587" style="fill:#afafde;fill-rule:evenodd;stroke:none;stroke-linejoin:round"/><path id="path36270" d="M 44.648438,46.302087 V 51.67877 L 65.72319,74.455987 v -4.462951 z" points="44.648 51.679 65.723 74.456 65.723 69.993 44.648 46.302" style="fill:#d7d7ff;fill-rule:evenodd;stroke:none;stroke-linejoin:round"/><path id="path36268" d="M 30.592448,69.089435 44.648438,46.302087 V 51.67877 L 30.592448,73.587237 Z" points="44.648 46.302 44.648 51.679 30.592 73.587 30.592 69.089" style="fill:#8686bf;fill-rule:evenodd;stroke:none;stroke-linejoin:round"/></g></g></g></svg>